<?xml version="1.0" standalone="no"?><!DOCTYPE svg PUBLIC "-//W3C//DTD SVG 1.1//EN" "http://www.w3.org/Graphics/SVG/1.1/DTD/svg11.dtd"><svg t="1502935268441" class="icon" style="" viewBox="0 0 1024 1024" version="1.1" xmlns="http://www.w3.org/2000/svg" p-id="4326" xmlns:xlink="http://www.w3.org/1999/xlink" width="200" height="200"><defs><style type="text/css"></style></defs><path d="M0 512c0 282.176 229.824 512 512 512s512-229.824 512-512-229.824-512-512-512-512 229.824-512 512z m710.656 31.68H545.28v162.432a30.08 30.08 0 0 1-30.72 30.72 30.08 30.08 0 0 1-30.848-30.72l1.6-162.432H321.472a30.08 30.08 0 0 1-30.72-30.72 30.08 30.08 0 0 1 30.72-30.848h163.84V319.744a30.08 30.08 0 0 1 30.72-30.784 30.08 30.08 0 0 1 30.848 30.72v162.432h163.84a30.08 30.08 0 0 1 30.72 30.784 30.08 30.08 0 0 1-30.72 30.784z" p-id="4327" fill="#c4c4c4"></path></svg>