<?xml version="1.0" standalone="no"?><!DOCTYPE svg PUBLIC "-//W3C//DTD SVG 1.1//EN" "http://www.w3.org/Graphics/SVG/1.1/DTD/svg11.dtd"><svg t="1514444050858" class="icon" style="" viewBox="0 0 1024 1024" version="1.1" xmlns="http://www.w3.org/2000/svg" p-id="10614" xmlns:xlink="http://www.w3.org/1999/xlink" width="150" height="150"><defs><style type="text/css"></style></defs><path d="M898.34496 213.73952H125.659591c-43.808996 0-79.22688 35.417884-79.22688 79.22688v438.068338c0 43.808996 35.417884 79.22688 79.22688 79.22688H898.343822c43.804444 0 79.222329-35.417884 79.222329-79.22688V292.9664c0-43.808996-35.416747-79.22688-79.221191-79.22688z" fill="#ced5f1" p-id="10615" data-spm-anchor-id="a313x.7781069.0.i36" class="selected"></path><path d="M271.993742 684.544c-0.579129 0-1.978596-0.361813-4.019769-1.386951l-0.96256-0.482418h-0.34816a5.393067 5.393067 0 0 0-1.06496-0.356124l-0.17408-0.172943a6.687858 6.687858 0 0 0-1.686186-1.219697l-1.046756-1.046756h-0.464213l-1.076338-1.070649v-0.013653l-1.438151-1.4336a5.890276 5.890276 0 0 1-1.009209-1.555342 6.006329 6.006329 0 0 0-0.333369-1.033103v-0.848782l-14.117547-43.38688-55.36768 13.58848c-1.338027 0.335644-2.876302 0.335644-4.5056 0.335645h-3.38944a5.792427 5.792427 0 0 0-1.391502-0.402774c-1.364196-0.344747-2.726116-0.702009-3.426986-1.163946l-1.142329-0.75776h-0.172943a5.131378 5.131378 0 0 0-1.236764-0.391396l-0.237796-0.113778c-0.773689-0.575716-1.366471-1.163947-2.086684-1.88416l-1.588338-1.588337a6.826667 6.826667 0 0 0-0.868124-1.303894c-3.589689-5.184853-3.693227-11.830613-0.24576-16.999538l71.640178-114.342115-0.802134-2.111716c-5.059698-13.344996-7.624249-27.539911-7.624249-42.195626 0-67.90144 56.495218-123.141689 125.938347-123.141689s125.938347 55.243662 125.938347 123.141689c0 14.657991-2.566827 28.852907-7.6288 42.193351l-0.828303 2.179982 74.922667 113.327218c3.093618 4.807111 3.284764 10.722418 0.504036 15.856071-0.188871 0.244622-0.341333 0.477867-0.461938 0.682667a5.071076 5.071076 0 0 0-0.981902 1.158257l-2.291485 2.286934c-0.302649 0.282169-0.6656 0.515413-1.389226 0.9728l-0.513138 0.326542c-0.118329 0.048924-0.233244 0.1024-0.353849 0.162702a5.050596 5.050596 0 0 0-1.23904 0.38912h-0.642845l-1.14688 0.764587c-0.684942 0.455111-1.40288 0.753209-2.714737 1.102506h-1.778347l-0.459662 0.461938h-4.639858c-0.712249 0-1.59744 0-2.299449-0.230969l-0.169529-0.055751-55.577031-13.644231-13.94688 43.911396-0.048924 0.244622c-0.241209 1.209458-1.039929 2.77504-2.255076 4.437333l-2.256213 2.255076c-0.331093 0.230969-0.640569 0.459662-0.938667 0.682666-0.356124 0.263964-0.663324 0.493796-0.918187 0.650809a5.001671 5.001671 0 0 0-2.143573 0.75776 5.3248 5.3248 0 0 0-0.328818 0.137671h-0.019342l-0.702009 0.23552c-0.382293 0.128569-0.735004 0.2048-1.143466 0.295823-0.740693 0.162702-1.664569 0.364089-2.68288 0.869262h-9.770098a6.439822 6.439822 0 0 0-0.469902-0.175218 5.213298 5.213298 0 0 0-0.877227-0.433493 5.127964 5.127964 0 0 0-0.950045-0.473316 5.092693 5.092693 0 0 0-1.647502-0.669013 6.838044 6.838044 0 0 0-0.725902-0.293547 5.422649 5.422649 0 0 0-0.873813-0.428942l-0.114916-0.069404-1.185564-1.186703h-0.466489l-0.128569-0.128569v-0.45056l-1.037653-1.049031a6.732231 6.732231 0 0 0-1.250418-1.718044l-0.031858-0.03072-55.322169-93.47072-3.01056 0.428942c-2.942293 0.422116-6.404551 0.422116-10.072747 0.422116-3.144818 0-6.708338 0-10.155804-0.431218l-2.960498-0.370916-54.562133 92.040534a5.001671 5.001671 0 0 0-1.5872 2.872889c-0.18432 0.273067-0.318578 0.517689-0.41984 0.711111l-1.51552 1.510969v0.455111c-1.56672 1.499591-3.029902 2.497422-4.46464 3.049244-0.496071 0.095573-0.925013 0.240071-1.276587 0.357262h-1.845475l-0.465351 0.466489h-7.429689v-0.009102z m85.750898-313.64096c-50.560569 0-91.696924 40.508302-91.696924 90.29632 0 49.794844 41.135218 90.302009 91.696924 90.302009s91.698062-40.50944 91.698062-90.302009c0-49.789156-41.135218-90.29632-91.698062-90.29632z m266.10688 267.036444c-12.653227 0-22.946702-9.875911-22.946702-22.013724s10.293476-22.013724 22.946702-22.013724h185.012907c12.440462 0 22.946702 10.077298 22.946702 22.013724 0 12.137813-10.293476 22.013724-22.946702 22.013724H623.85152z m0-101.595591c-12.440462 0-22.946702-10.079573-22.946702-22.013724 0-12.138951 10.293476-22.014862 22.946702-22.014862h132.817351c12.653227 0 22.946702 9.875911 22.946702 22.014862 0 12.137813-10.293476 22.013724-22.946702 22.013724H623.85152z m0-101.596729c-12.653227 0-22.946702-9.875911-22.946702-22.013724s10.293476-22.013724 22.946702-22.013724h211.111253c12.653227 0 22.946702 9.875911 22.946703 22.013724s-10.293476 22.013724-22.946703 22.013724H623.85152z" fill="#FFFFFF" p-id="10616"></path></svg>