<?xml version="1.0" standalone="no"?><!DOCTYPE svg PUBLIC "-//W3C//DTD SVG 1.1//EN" "http://www.w3.org/Graphics/SVG/1.1/DTD/svg11.dtd"><svg t="1514423426313" class="icon" style="" viewBox="0 0 1024 1024" version="1.1" xmlns="http://www.w3.org/2000/svg" p-id="7877" xmlns:xlink="http://www.w3.org/1999/xlink" width="150" height="150"><defs><style type="text/css"></style></defs><path d="M1024 784.278c0 32.555-26.636 59.19-59.19 59.19H59.191c-32.555 0-59.191-26.636-59.191-59.19V239.722c0-32.555 26.636-59.191 59.191-59.191h905.618c32.555 0 59.19 26.636 59.19 59.191v544.556z" fill="#CED5F1" p-id="7878"></path><path d="M365.816 310.198h74.595v38.546h-74.595zM365.816 406.211h74.595v38.556h-74.595zM365.816 502.335h74.595v38.553h-74.595zM142.536 701.289h169.711v38.547H142.536v-38.547zM350.299 701.289h576.722v38.547H350.299v-38.547z m112.338-392.094h464.384v38.65H462.637v-38.65z m0 97.016h464.384v38.653H462.637v-38.653z m0 96.124h464.384v38.553H462.637v-38.553zM96.978 387.593c0 57.119 46.307 103.428 103.428 103.428 57.125 0 103.434-46.309 103.434-103.428 0-57.124-46.309-103.43-103.434-103.43-57.121 0-103.428 46.306-103.428 103.43z" fill="#C2C7E9" p-id="7879"></path><path d="M800.75 281.946h-39.242v-9.257h48.498v48.5h-9.256zM800.75 742.049h-39.242v9.261h48.498v-48.502h-9.256zM223.25 742.049h39.243v9.255h-48.5v-48.496h9.257zM223.25 281.946h39.243v-9.26h-48.5v48.503h9.257z" fill="#FFFFFF" p-id="7880"></path><path d="M657.019 512.001c0 80.088-64.93 145.018-145.02 145.018-80.091 0-145.017-64.93-145.017-145.018 0-80.093 64.926-145.018 145.017-145.018 80.091 0.001 145.02 64.925 145.02 145.018z" fill="#FFFFFF" p-id="7881"></path><path d="M561.625 472.243h-11.705s-5.994-15.931-10.01-15.931h-43.911c-3.812 0-11.979 15.931-11.979 15.931h-8.238c-0.817-1.434-3.609-5.994-4.629-5.994h-13.414c-1.156 0-3.674 5.994-3.674 6.398 0 0.41 0.136 0.821 0.409 1.162-7.489 3.127-12.391 10.479-12.391 18.653v55.005c0 5.307 2.11 10.48 5.922 14.295 3.747 3.816 8.919 5.926 14.296 5.926h99.261c11.162 0 20.283-9.059 20.352-20.156v-55.006c0-11.231-9.121-20.283-20.289-20.283z m-91.972 17.492c-1.497 1.503-3.537 2.318-5.648 2.318s-4.153-0.815-5.65-2.318c-1.499-1.497-2.315-3.537-2.315-5.647a7.931 7.931 0 0 1 7.965-7.965c2.111 0 4.152 0.814 5.648 2.312a7.995 7.995 0 0 1 2.318 5.653c0 2.11-0.818 4.15-2.318 5.647z m48.269 63.993c-20.899 0-37.919-16.879-37.919-37.779 0-20.833 16.951-37.787 37.919-37.787 20.971 0 37.918 16.885 37.918 37.787 0 20.832-16.948 37.779-37.918 37.779z" fill="#B4BAEB" p-id="7882"></path><path d="M517.922 541.816c-14.364 0-25.938-11.572-25.938-25.867 0-14.295 11.642-25.874 25.938-25.874 14.361 0 25.938 11.578 25.938 25.874-0.001 14.295-11.639 25.867-25.938 25.867z" fill="#B4BAEB" p-id="7883"></path></svg>