<?xml version="1.0" standalone="no"?><!DOCTYPE svg PUBLIC "-//W3C//DTD SVG 1.1//EN" "http://www.w3.org/Graphics/SVG/1.1/DTD/svg11.dtd"><svg t="1514423393790" class="icon" style="" viewBox="0 0 1024 1024" version="1.1" xmlns="http://www.w3.org/2000/svg" p-id="6904" xmlns:xlink="http://www.w3.org/1999/xlink" width="150" height="150"><defs><style type="text/css"></style></defs><path d="M1024.002 769.926c0 42.518-34.471 76.992-76.993 76.992H76.992C34.469 846.918 0 812.443 0 769.926V254.074c0-42.526 34.47-76.993 76.993-76.993h870.016c42.522 0 76.993 34.466 76.993 76.993v515.852z" fill="#CED5F1" p-id="6905"></path><path d="M513.105 440.594c4.26 14.656 8.752 28.379 15.377 40.198 7.8 13.723 17.732 24.831 32.157 31.455 6.629 3.075 23.414 4.732 40.207 4.971 17.263 0.232 35.233-0.952 42.331-3.557 15.846-5.67 26.959-16.55 35.474-30.741 7.335-12.294 12.534-26.718 17.026-42.564 6.628-3.549 11.356-9.691 14.666-17.736 3.549-8.752 5.202-20.338 4.961-33.823v-4.729l-3.785-2.598c-1.176-0.711-2.601-1.658-3.778-2.361v-0.004c8.516-44.462 6.621-73.075-21.048-99.09-39.726-29.083-130.068-30.267-169.328 1.895-20.338 22.937-21.996 43.038-17.5 97.433-1.18 0.47-2.128 1.185-3.079 1.895l-4.015 2.603v4.729c-0.241 13.715 1.413 25.301 5.199 34.29 3.316 8.275 8.516 14.181 15.135 17.734z m0.479-47.298c1.416-0.715 3.071-0.944 4.729-0.715l8.274 0.715 1.654-8.046a95.26 95.26 0 0 1 9.229-27.668c13.951 1.421 30.741-11.827 42.327-5.44 30.037 17.03 67.876 12.542 93.417 7.571 3.778 8.038 6.62 16.79 8.512 26.015l1.421 7.806 8.038-0.481c1.657 0 3.312 0.244 4.732 0.714 0.475 0.236 1.181 0.471 1.888 0.715-0.233 8.744-1.654 16.079-3.786 21.76-2.127 4.961-4.962 8.271-8.511 9.454l-4.489 1.658-1.185 4.492c-4.255 15.842-9.229 30.508-16.083 42.091-6.386 10.643-14.66 18.916-26.015 23.176-4.966 1.896-20.571 2.605-35.943 2.369-14.662-0.241-28.62-1.421-32.868-3.319-10.413-4.726-17.978-13.241-23.892-23.88-6.383-11.587-10.88-25.545-14.898-40.437l-1.421-4.737-4.729-1.413c-3.785-1.184-6.62-4.259-8.748-9.226-2.368-5.673-3.552-13.244-3.781-22.232 0.706-0.473 1.413-0.705 2.128-0.942zM433.41 723.669h-56.443M431.147 766.007h2.263M734.704 535.42l-64.098 2.128-42.09 90.579-10.166-67.395 7.331-12.072-0.474-12.526c-13.955-0.946-18.215-0.946-32.399 0l-0.478 12.526 7.335 12.072-10.172 66.925-54.151-89.624-57.943-0.485c-42.094 36.658-49.895 108.794-50.846 151.12h357.335c5.207-48.011-16.079-122.023-49.184-153.248z" fill="#C2C7E9" p-id="6906"></path><path d="M576.015 718.92c0 5.985-6.063 10.843-13.549 10.843H252.88c-7.478 0-13.549-4.857-13.549-10.843V529.262c0-5.985 6.071-10.831 13.549-10.831h309.586c7.485 0 13.549 4.846 13.549 10.831V718.92z" fill="#D4DDF9" p-id="6907"></path><path d="M278.361 545.765h22.748v11.737h-22.748v-11.737z m0 29.301h22.748V586.8h-22.748v-11.734z m0 29.234h22.748v11.737h-22.748V604.3zM524.715 585.36c0.323 0.195 0.722 0.454 1.05 0.65l1.048 0.726v1.308c0.068 3.74-0.395 6.952-1.376 9.372-0.917 2.233-2.229 3.94-4.063 4.925-1.248 4.388-2.688 8.385-4.718 11.797-2.365 3.93-5.444 6.952-9.835 8.523-1.97 0.714-6.951 1.049-11.737 0.98-4.654-0.07-9.308-0.522-11.143-1.372-4.004-1.842-6.752-4.924-8.914-8.722-1.834-3.282-3.079-7.086-4.263-11.146-1.831-0.985-3.278-2.621-4.195-4.913-1.053-2.492-1.507-5.704-1.44-9.508v-1.313l1.113-0.722c0.26-0.191 0.522-0.391 0.85-0.522-1.241-15.079-0.782-20.65 4.857-27.011 10.879-8.918 35.917-8.591 46.933-0.522 7.67 7.21 8.194 15.147 5.833 27.47z m-22.88 43.529l0.131 3.47-2.03 3.351 2.82 18.677 11.669-25.109 17.763-0.586c9.178 8.654 15.08 29.172 13.64 42.478h-99.057c0.263-11.738 2.428-31.729 14.094-41.892l16.061 0.132 15.015 24.846 2.819-18.545-2.033-3.351 0.131-3.47c3.936-0.263 5.112-0.263 8.977-0.001z m13.308-48.905c-7.079 1.368-17.567 2.62-25.895-2.098-3.21-1.774-7.865 1.894-11.729 1.508a26.167 26.167 0 0 0-2.56 7.672l-0.458 2.222-2.297-0.195c-0.455-0.064-0.917 0-1.308 0.195-0.2 0.072-0.387 0.136-0.586 0.268 0.06 2.488 0.387 4.582 1.042 6.158 0.598 1.376 1.376 2.232 2.428 2.556l1.316 0.392 0.387 1.315c1.117 4.132 2.361 8 4.132 11.214 1.639 2.947 3.737 5.305 6.62 6.617 1.181 0.526 5.049 0.854 9.117 0.914 4.259 0.07 8.586-0.132 9.958-0.654 3.15-1.178 5.444-3.478 7.21-6.43 1.906-3.206 3.282-7.27 4.463-11.661l0.322-1.248 1.248-0.459c0.985-0.323 1.768-1.241 2.361-2.624 0.591-1.567 0.981-3.602 1.049-6.029a3.581 3.581 0 0 1-0.522-0.192 4.122 4.122 0 0 0-1.315-0.195l-2.226 0.132-0.398-2.166c-0.52-2.561-1.31-4.99-2.359-7.212z m-205.711-34.219h68.44v11.737h-68.44v-11.737z m68.44 41.035h-68.44v-11.733h68.44V586.8m-68.44 17.5h68.44v11.737h-68.44V604.3z m36.316 76.571h102.925v11.737H345.748v-11.737zM278.361 680.871h60.312v11.737h-60.312z" fill="#C2C7E9" p-id="6908"></path><path d="M803.208 279.988h-39.577v-9.338h48.915v48.917h-9.338zM803.208 744.011h-39.577v9.338h48.915v-48.91h-9.338zM220.792 744.011h39.577v9.331h-48.914v-48.903h9.337zM220.792 279.988h39.577v-9.338h-48.914v48.917h9.337z" fill="#FFFFFF" p-id="6909"></path><path d="M512 511.998m-146.286 0a146.286 146.286 0 1 0 292.572 0 146.286 146.286 0 1 0-292.572 0Z" fill="#FFFFFF" p-id="6910"></path><path d="M562.064 471.897h-11.812s-6.043-16.072-10.094-16.072h-44.297c-3.844 0-12.083 16.072-12.083 16.072h-8.308c-0.827-1.448-3.643-6.049-4.671-6.049h-13.532c-1.165 0-3.705 6.049-3.705 6.455 0 0.413 0.138 0.831 0.414 1.173-7.554 3.149-12.502 10.571-12.502 18.815v55.488c0 5.355 2.13 10.572 5.976 14.418 3.778 3.85 8.997 5.979 14.421 5.979h100.126c11.261 0 20.464-9.139 20.53-20.334v-55.487c0-11.334-9.197-20.458-20.463-20.458z m-92.778 17.639c-1.511 1.519-3.568 2.342-5.698 2.342-2.129 0-4.19-0.823-5.701-2.342-1.513-1.508-2.334-3.564-2.334-5.695a8.001 8.001 0 0 1 8.036-8.034c2.13 0 4.187 0.818 5.698 2.33a8.074 8.074 0 0 1 2.338 5.704c-0.001 2.131-0.825 4.188-2.339 5.695z m48.69 64.559c-21.08 0-38.249-17.029-38.249-38.115 0-21.012 17.098-38.118 38.249-38.118 21.151 0 38.252 17.038 38.252 38.118 0 21.016-17.1 38.115-38.252 38.115z" fill="#B4BAEB" p-id="6911"></path><path d="M517.976 542.074c-14.489 0-26.166-11.67-26.166-26.094 0-14.418 11.747-26.102 26.166-26.102 14.49 0 26.163 11.684 26.163 26.102 0 14.424-11.74 26.094-26.163 26.094z" fill="#B4BAEB" p-id="6912"></path></svg>