<?xml version="1.0" standalone="no"?><!DOCTYPE svg PUBLIC "-//W3C//DTD SVG 1.1//EN" "http://www.w3.org/Graphics/SVG/1.1/DTD/svg11.dtd"><svg t="1491441444720" class="icon" style="" viewBox="0 0 1024 1024" version="1.1" xmlns="http://www.w3.org/2000/svg" p-id="2374" xmlns:xlink="http://www.w3.org/1999/xlink" width="200" height="200"><defs><style type="text/css"></style></defs><path d="M974.09024 235.040768l-699.795456-32.746496-15.123456-105.05216L84.842496 55.501824l-11.922432 49.793024 140.526592 33.645568 86.695936 602.22464 646.740992 0 0-51.2L344.500224 689.965056l-7.443456-51.70688 611.303424 0L974.09024 235.040768zM900.323328 587.058176 329.684992 587.058176l-47.961088-333.160448 637.954048 29.853696L900.323328 587.058176z" p-id="2375" fill="#f05141"></path><path d="M451.001344 775.64928c-6.833152-4.617216-14.38208-8.281088-22.447104-10.789888-8.062976-2.507776-16.642048-3.856384-25.470976-3.85536-11.772928-0.003072-23.095296 2.397184-33.3568 6.740992-15.401984 6.518784-28.4416 17.355776-37.67808 31.020032-4.616192 6.833152-8.281088 14.38208-10.78784 22.447104-2.509824 8.062976-3.857408 16.643072-3.856384 25.470976-0.003072 11.772928 2.397184 23.095296 6.740992 33.3568 6.518784 15.401984 17.355776 28.442624 31.019008 37.677056 6.833152 4.617216 14.38208 8.281088 22.447104 10.789888 8.062976 2.5088 16.642048 3.856384 25.470976 3.85536 11.772928 0.003072 23.094272-2.398208 33.355776-6.740992 15.403008-6.518784 28.443648-17.355776 37.67808-31.019008 4.616192-6.834176 8.281088-14.383104 10.789888-22.448128 2.5088-8.062976 3.856384-16.643072 3.85536-25.470976 0.003072-11.772928-2.397184-23.095296-6.740992-33.3568C475.500544 797.924352 464.664576 784.883712 451.001344 775.64928zM444.296192 864.083968c-3.378176 7.998464-9.076736 14.86848-16.224256 19.692544-3.572736 2.41152-7.498752 4.31616-11.682816 5.61664-4.186112 1.301504-8.630272 2.006016-13.305856 2.00704-6.23104-0.003072-12.060672-1.251328-17.400832-3.506176-7.998464-3.378176-14.86848-9.075712-19.692544-16.224256-2.413568-3.572736-4.31616-7.498752-5.617664-11.682816-1.301504-4.187136-2.006016-8.631296-2.00704-13.305856 0.003072-6.23104 1.252352-12.061696 3.506176-17.400832 3.3792-7.998464 9.076736-14.86848 16.22528-19.69152 3.571712-2.412544 7.496704-4.31616 11.681792-5.617664 4.18816-1.301504 8.63232-2.006016 13.305856-2.00704 6.23104 0.003072 12.060672 1.251328 17.400832 3.506176 7.999488 3.378176 14.869504 9.075712 19.693568 16.224256 2.41152 3.572736 4.31616 7.498752 5.61664 11.682816 1.301504 4.187136 2.006016 8.63232 2.00704 13.305856C447.799296 852.914176 446.550016 858.743808 444.296192 864.083968z" p-id="2376" fill="#f05141"></path><path d="M925.150208 813.326336c-6.518784-15.401984-17.354752-28.4416-31.019008-37.677056-6.833152-4.617216-14.383104-8.281088-22.448128-10.789888-8.061952-2.507776-16.642048-3.856384-25.469952-3.85536-11.772928-0.003072-23.095296 2.397184-33.3568 6.740992-15.401984 6.518784-28.4416 17.355776-37.677056 31.020032-4.617216 6.833152-8.281088 14.38208-10.789888 22.447104-2.507776 8.062976-3.856384 16.643072-3.85536 25.470976-0.003072 11.772928 2.397184 23.095296 6.740992 33.3568 6.518784 15.401984 17.355776 28.442624 31.020032 37.677056 6.833152 4.617216 14.38208 8.281088 22.447104 10.789888 8.062976 2.5088 16.643072 3.856384 25.470976 3.85536 11.772928 0.003072 23.095296-2.398208 33.355776-6.740992 15.401984-6.518784 28.442624-17.355776 37.67808-31.019008 4.617216-6.834176 8.281088-14.383104 10.789888-22.448128 2.5088-8.062976 3.856384-16.643072 3.85536-25.470976C931.895296 834.910208 929.494016 823.58784 925.150208 813.326336zM887.426048 864.083968c-3.3792 7.998464-9.076736 14.86848-16.22528 19.692544-3.571712 2.41152-7.497728 4.31616-11.681792 5.61664-4.187136 1.301504-8.631296 2.006016-13.305856 2.00704-6.23104-0.003072-12.061696-1.251328-17.400832-3.506176-7.998464-3.378176-14.86848-9.075712-19.69152-16.224256-2.412544-3.572736-4.31616-7.497728-5.617664-11.682816-1.301504-4.187136-2.006016-8.631296-2.00704-13.305856 0.003072-6.23104 1.251328-12.061696 3.506176-17.400832 3.378176-7.998464 9.075712-14.86848 16.224256-19.69152 3.572736-2.412544 7.497728-4.31616 11.682816-5.617664 4.187136-1.301504 8.63232-2.006016 13.305856-2.00704 6.23104 0.003072 12.060672 1.251328 17.399808 3.506176 7.999488 3.378176 14.86848 9.075712 19.693568 16.224256 2.41152 3.572736 4.31616 7.498752 5.61664 11.682816 1.301504 4.187136 2.006016 8.63232 2.00704 13.305856C890.929152 852.914176 889.68192 858.743808 887.426048 864.083968z" p-id="2377" fill="#f05141"></path><path d="M407.35744 589.758464l15.36 0L422.71744 518.74816l113.527808 0 0 71.010304 15.36 0L551.605248 518.74816l113.722368 0 0 71.010304 15.36 0L680.687616 518.74816l113.721344 0 0 71.010304 15.36 0L809.76896 518.74816l95.422464 0 0.980992-15.36-96.403456 0 0-72.738816 101.044224 0 0.979968-15.36-102.024192 0L809.76896 342.29248l106.683392 0 0.979968-15.36-107.66336 0 0-56.933376-15.36-0.718848 0 57.6512L680.686592 326.931456l0-62.973952-15.36-0.718848 0 63.691776L551.605248 326.930432l0-69.013504-15.36-0.718848 0 69.732352L422.71744 326.930432l0-75.044864-15.36 0.443392 0 74.602496L281.726976 326.931456l0 15.36L407.35744 342.291456l0 72.996864L303.813632 415.28832l2.210816 15.36 101.332992 0 0 72.738816-90.860544 0 2.21184 15.36 88.648704 0L407.35744 589.758464zM680.686592 342.291456l113.721344 0 0 72.996864L680.686592 415.28832 680.686592 342.291456zM680.686592 430.64832l113.721344 0 0 72.738816L680.686592 503.387136 680.686592 430.64832zM551.605248 342.291456l113.722368 0 0 72.996864L551.605248 415.28832 551.605248 342.291456zM551.605248 430.64832l113.722368 0 0 72.738816L551.605248 503.387136 551.605248 430.64832zM422.71744 342.291456l113.527808 0 0 72.996864L422.71744 415.28832 422.71744 342.291456zM422.71744 430.64832l113.527808 0 0 72.738816L422.71744 503.387136 422.71744 430.64832z" p-id="2378" fill="#f05141"></path></svg>