<?xml version="1.0" standalone="no"?><!DOCTYPE svg PUBLIC "-//W3C//DTD SVG 1.1//EN" "http://www.w3.org/Graphics/SVG/1.1/DTD/svg11.dtd"><svg t="1514423414074" class="icon" style="" viewBox="0 0 1024 1024" version="1.1" xmlns="http://www.w3.org/2000/svg" p-id="7432" xmlns:xlink="http://www.w3.org/1999/xlink" width="150" height="150"><defs><style type="text/css"></style></defs><path d="M1024 784.277c0 32.555-26.636 59.189-59.189 59.189H59.19C26.635 843.469 0 816.832 0 784.277V239.723c0-32.555 26.637-59.19 59.19-59.19h905.619c32.555 0 59.19 26.636 59.19 59.19v544.554h0.001z" fill="#CED5F1" p-id="7433"></path><path d="M98.357 466.008h70.302v36.267H98.357zM98.357 285.084h70.302v36.27H98.357zM98.357 375.651h70.302v36.263H98.357zM194.388 375.651h211.517v36.263H194.388zM882.837 541.375l-54.911 1.824-36.062 77.602-8.708-57.742 6.277-10.338-0.405-10.734c-11.953-0.811-15.601-0.811-27.757 0l-0.407 10.734 6.283 10.338-8.714 57.338-46.395-76.789-49.638-0.408c-36.063 31.402-42.749 93.197-43.561 129.465h306.13c4.463-41.13-13.773-104.544-42.132-131.29zM692.994 460.135c3.646 12.559 7.495 24.31 13.172 34.439 6.685 11.751 15.189 21.271 27.553 26.949 5.676 2.633 20.057 4.051 34.44 4.254 14.789 0.201 30.186-0.814 36.267-3.041 13.574-4.861 23.096-14.183 30.391-26.338 6.283-10.534 10.737-22.894 14.586-36.469 5.677-3.037 9.729-8.303 12.563-15.193 3.041-7.497 4.457-17.425 4.252-28.975v-4.052l-3.243-2.226c-1.009-0.609-2.229-1.422-3.24-2.026v-0.003c7.296-38.089 5.677-62.604-18.028-84.89-34.036-24.92-111.431-25.935-145.064 1.621-17.42 19.649-18.842 36.873-14.992 83.474-1.011 0.401-1.823 1.011-2.636 1.619l-3.439 2.228v4.053c-0.208 11.751 1.212 21.679 4.454 29.379 2.834 7.091 7.291 12.157 12.964 15.197z m0.408-40.52c1.21-0.61 2.633-0.813 4.049-0.61l7.09 0.61 1.419-6.891a81.707 81.707 0 0 1 7.904-23.705c11.951 1.217 26.339-10.13 36.264-4.659 25.733 14.587 58.147 10.737 80.028 6.481 3.236 6.892 5.673 14.385 7.294 22.286l1.219 6.686 6.885-0.405c1.418 0 2.837 0.206 4.055 0.607 0.404 0.201 1.011 0.406 1.618 0.608-0.202 7.497-1.419 13.778-3.242 18.64-1.825 4.254-4.255 7.093-7.296 8.104l-3.843 1.416-1.017 3.853c-3.646 13.572-7.903 26.137-13.779 36.063-5.472 9.116-12.559 16.206-22.285 19.853-4.256 1.622-17.625 2.231-30.793 2.029-12.562-0.205-24.518-1.217-28.161-2.838-8.919-4.052-15.399-11.347-20.465-20.462-5.473-9.928-9.321-21.881-12.764-34.646l-1.218-4.052-4.052-1.217c-3.243-1.012-5.673-3.647-7.498-7.902-2.021-4.86-3.039-11.344-3.236-19.043 0.606-0.403 1.215-0.605 1.824-0.806zM194.388 285.084h211.517v36.27H194.388zM306.631 702.648h318.087v36.268H306.631zM194.388 466.008h211.517v36.267H194.388zM98.357 702.648h186.394v36.268H98.357z" fill="#C2C7E9" p-id="7434"></path><path d="M800.748 281.948h-39.241v-9.256h48.5v48.499h-9.259zM800.748 742.052h-39.241v9.26h48.5V702.81h-9.259zM223.249 742.052h39.243v9.254h-48.5V702.81h9.257zM223.249 281.948h39.243v-9.257h-48.5v48.499h9.257z" fill="#FFFFFF" p-id="7435"></path><path d="M512 512.001m-145.018 0a145.018 145.018 0 1 0 290.036 0 145.018 145.018 0 1 0-290.036 0Z" fill="#FFFFFF" p-id="7436"></path><path d="M561.625 472.242H549.92s-5.993-15.931-10.012-15.931H496c-3.813 0-11.979 15.931-11.979 15.931h-8.239c-0.815-1.431-3.607-5.991-4.628-5.991H457.74c-1.155 0-3.675 5.991-3.675 6.398 0 0.411 0.135 0.817 0.409 1.159-7.489 3.13-12.39 10.482-12.39 18.652v55.005a20.268 20.268 0 0 0 5.922 14.301c3.746 3.811 8.918 5.922 14.295 5.922h99.26c11.162 0 20.284-9.059 20.353-20.154v-55.006c-0.001-11.234-9.12-20.286-20.289-20.286z m-91.973 17.495c-1.497 1.5-3.538 2.314-5.648 2.314-2.111 0-4.153-0.813-5.65-2.314-1.499-1.497-2.315-3.54-2.315-5.65a7.933 7.933 0 0 1 7.966-7.965c2.11 0 4.151 0.818 5.648 2.315a7.98 7.98 0 0 1 2.318 5.649c-0.001 2.111-0.819 4.154-2.319 5.651z m48.271 63.995c-20.9 0-37.92-16.883-37.92-37.783 0-20.833 16.95-37.785 37.92-37.785s37.916 16.885 37.916 37.785c0 20.832-16.948 37.783-37.916 37.783z" fill="#B4BAEB" p-id="7437"></path><path d="M517.923 541.818c-14.365 0-25.939-11.576-25.939-25.871 0-14.294 11.642-25.87 25.939-25.87 14.361 0 25.937 11.575 25.937 25.87-0.002 14.295-11.64 25.871-25.937 25.871z" fill="#B4BAEB" p-id="7438"></path></svg>