<?xml version="1.0" standalone="no"?><!DOCTYPE svg PUBLIC "-//W3C//DTD SVG 1.1//EN" "http://www.w3.org/Graphics/SVG/1.1/DTD/svg11.dtd"><svg t="1491442596756" class="icon" style="" viewBox="0 0 1024 1024" version="1.1" xmlns="http://www.w3.org/2000/svg" p-id="4564" xmlns:xlink="http://www.w3.org/1999/xlink" width="200" height="200"><defs><style type="text/css"></style></defs><path d="M455.211623 532.789489c56.378032 110.245893 191.453427 153.914462 301.69932 97.53643 110.245893-56.378032 153.914462-191.453427 97.53643-301.69932C798.069341 218.380706 662.993946 174.712137 552.748053 231.090169 442.50216 287.468201 398.833591 422.543595 455.211623 532.789489zM570.58428 265.968537c90.983177-46.527686 202.458061-10.488889 248.984724 80.494289 46.527686 90.983177 10.488889 202.457038-80.494289 248.984724-90.983177 46.527686-202.458061 10.488889-248.984724-80.494289C443.562305 423.970084 479.601102 312.4952 570.58428 265.968537z" p-id="4565" fill="#f05141"></path><path d="M879.091656 801.718451l-63.35084-123.881448c-6.982018-13.653975-23.711028-19.062148-37.366026-12.08013l-6.444782 3.296069c-13.653975 6.982018-19.062148 23.712051-12.08013 37.366026l63.35084 123.881448c6.982018 13.653975 23.712051 19.062148 37.366026 12.08013l6.444782-3.295046C880.665501 832.101435 886.074697 815.372425 879.091656 801.718451z" p-id="4566" fill="#f05141"></path><path d="M134.301775 251.602342l302.591643 0c12.17632 0 22.047132-9.870812 22.047132-22.047132s-9.870812-22.047132-22.047132-22.047132l-302.591643 0c-12.17632 0-22.047132 9.870812-22.047132 22.047132S122.125455 251.602342 134.301775 251.602342z" p-id="4567" fill="#f05141"></path><path d="M134.301775 449.313286l224.027309 0c12.17632 0 22.047132-9.870812 22.047132-22.047132s-9.870812-22.047132-22.047132-22.047132L134.301775 405.219022c-12.17632 0-22.047132 9.870812-22.047132 22.047132S122.125455 449.313286 134.301775 449.313286z" p-id="4568" fill="#f05141"></path><path d="M134.301775 647.02423l288.98781 0c12.17632 0 22.047132-9.870812 22.047132-22.047132 0-12.17632-9.870812-22.047132-22.047132-22.047132L134.301775 602.929965c-12.17632 0-22.047132 9.870812-22.047132 22.047132C112.25362 637.152395 122.125455 647.02423 134.301775 647.02423z" p-id="4569" fill="#f05141"></path><path d="M729.026872 802.428625 132.512013 802.428625c-11.18883 0-20.258393 9.069563-20.258393 20.258393s9.069563 20.258393 20.258393 20.258393l596.514859 0c11.18883 0 20.258393-9.069563 20.258393-20.258393S740.214678 802.428625 729.026872 802.428625z" p-id="4570" fill="#f05141"></path></svg>