<?xml version="1.0" standalone="no"?><!DOCTYPE svg PUBLIC "-//W3C//DTD SVG 1.1//EN" "http://www.w3.org/Graphics/SVG/1.1/DTD/svg11.dtd"><svg t="1514442990166" class="icon" style="" viewBox="0 0 1389 1024" version="1.1" xmlns="http://www.w3.org/2000/svg" p-id="10441" xmlns:xlink="http://www.w3.org/1999/xlink" width="203.466796875" height="150"><defs><style type="text/css"></style></defs><path d="M1067.912461 540.145065a28.853311 28.853311 0 0 0 1.570457 10.223372c0.523486 1.97077 1.939977 3.695195 3.849161 4.465027a29.530763 29.530763 0 0 0 7.174836 0.646659h11.732243a9.607506 9.607506 0 0 0 9.669093-4.618994 26.790161 26.790161 0 0 0 2.340289-12.194142v-23.156552h-36.336079v24.63463zM1206.143531 561.607987h42.648703a6.220244 6.220244 0 0 0 2.401877 0.123173c4.526613-0.677452 7.913875-5.912311 7.451976-11.855416v-6.682143a15.581404 15.581404 0 0 0-2.925363-7.667529c-1.878391-2.956156-4.68058-4.557407-7.698322-4.372647h-40.339207a11.393517 11.393517 0 0 0-9.853852 3.110122 20.69309 20.69309 0 0 0-2.463463 10.161785l-0.307933 5.819932c-0.369519 7.575149 3.479642 11.362723 11.085584 11.362723zM1104.186954 454.909244a21.401335 21.401335 0 0 0-2.124737-10.254165 9.299573 9.299573 0 0 0-9.237986-4.126301h-14.472846c-6.990076 0-10.469718 5.019306-10.469718 14.903952v27.590786h36.305287v-28.114272zM296.047903 644.688278l0.030793-0.18476v-4.957719a13.67222 13.67222 0 0 0-3.079329-7.513562 15.612197 15.612197 0 0 0-13.3027-4.711373h-117.938293a30.054249 30.054249 0 0 0-12.963974 2.401876c-3.110122 2.093944-4.834546 6.528177-4.311061 10.962411v3.972334c0 8.89926 5.604378 13.333494 16.659169 13.333494h118.554159c10.931617 0 16.351236-4.40344 16.351236-13.302701zM172.628405 552.64714v3.541228c0 8.960847 3.110122 13.518253 9.237986 13.518254h76.121008c4.68058 0 7.051663-4.557407 7.051663-13.518254v-3.541228c0.09238-3.387262-0.307933-6.897697-1.077765-9.884645-1.755217-3.202502-3.879954-4.434233-5.973898-3.572022H181.866391c-6.127864 0-9.237986 4.649786-9.237986 13.456667z" p-id="10442" fill="#ced5f1"></path><path d="M1303.63508 0H85.914505A86.621519 86.621519 0 0 0 0.001232 87.052625v849.89475a86.621519 86.621519 0 0 0 85.913273 87.052625h1217.720575a86.529139 86.529139 0 0 0 85.913274-87.052625v-849.89475a86.529139 86.529139 0 0 0-85.913274-87.052625z m-465.563721 561.361641l-13.57984-14.349673a26.666987 26.666987 0 0 1-5.819932-12.348108 20.539123 20.539123 0 0 1 8.652914-16.351236c6.620557-6.343417 15.273471-3.818368 26.205088 7.667529l0.831419-23.587659 0.400313-14.349672-18.537559 1.570458a16.936308 16.936308 0 0 1-12.194143-3.510435 16.10489 16.10489 0 0 1-6.127864-11.485897 17.059482 17.059482 0 0 1 3.849161-12.994767 13.949359 13.949359 0 0 1 10.654478-6.004691l24.018764-0.585073v-45.23534c0-0.554279 0-1.046972 0.061587-1.601251a17.582967 17.582967 0 0 1 19.061045-16.01251 19.399771 19.399771 0 0 1 13.210321 5.481206 16.412823 16.412823 0 0 1 5.111686 12.132555l-1.262525 43.018223 30.608528-1.293318c8.252601-1.324111 16.628376 0.554279 23.464486 5.234859a23.402899 23.402899 0 0 1 6.497383 12.378902c0.523486 6.312624 0.09238 12.656041-1.262524 18.814699a296.50857 296.50857 0 0 0-3.202502 19.984844c-0.708246 6.066278-1.416491 15.273471-2.155531 27.559993-0.708246 12.255729-1.170145 22.633067-1.570457 31.101221-0.338726 8.221808 0 16.474409 0.769832 24.665423 0.246346 5.542792 0.769832 10.993204 1.662838 16.443616 0.769832 5.665965 1.97077 11.23955 3.572021 16.751549 1.416491 4.557407 2.863776 6.74373 4.341854 6.55897a10.962411 10.962411 0 0 0 4.003127-8.930053l1.508871-9.915439a13.549047 13.549047 0 0 1 14.411259-9.1764 20.539123 20.539123 0 0 1 16.043303 5.943105c2.925362 3.356468 4.618993 7.575149 4.77296 12.040175a51.609551 51.609551 0 0 1-2.925363 16.505203c-3.479642 11.547483-7.852288 22.787033-13.056354 33.657064a22.325134 22.325134 0 0 1-19.122632 15.612197 28.853311 28.853311 0 0 1-22.633066-13.549047 106.729536 106.729536 0 0 1-16.813136-31.132014 209.887051 209.887051 0 0 1-8.406567-33.841824 245.114573 245.114573 0 0 1-2.001564-42.741084c0-10.377338 0.369519-22.325134 1.231731-35.904974 0.831419-13.549047 1.662838-24.511457 2.34029-32.394539 0.739039-7.883082-1.508871-11.947796-6.65135-11.701449l-16.967102 1.231732c-2.093944 24.203524-4.033921 48.222289-6.066277 72.148673 7.790702 6.959283 14.903951 14.657605 21.216575 22.971793a24.141938 24.141938 0 0 1 3.510435 12.532868 25.866362 25.866362 0 0 1-8.745294 16.351236c-5.850725 6.312624-14.257292 2.925362-24.973356-10.100198-4.926926 13.087147-10.500511 25.927949-16.782342 38.49161a150.794731 150.794731 0 0 1-15.273471 22.941 66.729055 66.729055 0 0 1-15.858544 15.27347 26.790161 26.790161 0 0 1-14.626811 3.849161 16.01251 16.01251 0 0 1-12.317316-7.051663 18.044867 18.044867 0 0 1-0.431106-22.325133c4.77296-4.742166 9.884645-9.145607 15.242678-13.271908a65.897636 65.897636 0 0 0 20.200397-31.070427c3.541228-9.207193 6.46659-18.660733 8.776087-28.329825l1.262525-8.221808a581.161725 581.161725 0 0 0-8.129428-9.545919z m-59.307873-161.387623a16.01251 16.01251 0 0 1 4.988513 11.886209v44.927408h14.503638a14.380466 14.380466 0 0 1 11.763036 5.358032c2.832982 3.602815 4.31106 8.067841 4.249474 12.717628a18.16804 18.16804 0 0 1-4.434233 11.455103 14.811572 14.811572 0 0 1-11.485897 4.742166h-14.503638v37.906538c5.604378-2.894569 11.947796-4.095507 18.137246-3.356469 5.234859 1.200938 9.114813 5.419619 10.038612 10.685271a17.706141 17.706141 0 0 1-1.077765 12.840801l0.153966 0.307933a19.522945 19.522945 0 0 1-5.665965 5.450412c-2.555843 1.632044-9.946232 4.988513-21.432128 10.161785v92.872557c0 18.783906-13.148734 27.867926-39.446202 27.282853a19.307392 19.307392 0 0 1-22.910206-22.66386 14.903951 14.903951 0 0 1 11.732242-15.489024 25.250496 25.250496 0 0 1 6.805317 0.246347c2.217117 0.615866 4.49582 0.369519 6.620557-0.646659a16.782342 16.782342 0 0 0 1.724424-10.623685v-56.905996c-8.714501 4.31106-17.921694 7.359596-27.467613 9.26878a18.229627 18.229627 0 0 1-10.377338-3.879955 14.626812 14.626812 0 0 1-5.973898-11.023997 19.276598 19.276598 0 0 1 2.155531-11.763036 19.954051 19.954051 0 0 1 8.960846-7.913875l16.628376-5.573585 16.01251-5.819931v-51.332412h-27.991099a12.994768 12.994768 0 0 1-16.10489-12.009382 24.018765 24.018765 0 0 1 4.126301-17.182655 15.704577 15.704577 0 0 1 11.978589-5.050099h27.991099v-44.927407a14.811572 14.811572 0 0 1 5.542791-11.886209 19.522945 19.522945 0 0 1 12.625249-4.742167 15.950923 15.950923 0 0 1 12.132555 4.68058z m-84.00409-248.501834a61.586576 61.586576 0 0 1 61.586576 61.524989v0.09238a61.586576 61.586576 0 1 1-61.586576-61.617369z m-180.356288 260.849943a24.573044 24.573044 0 0 1 4.95772 13.764599l0.307933 205.668371h26.451434v-204.713779a18.014073 18.014073 0 0 1 5.850725-14.041739 21.924821 21.924821 0 0 1 14.749985-5.327239 15.396644 15.396644 0 0 1 13.425873 5.943105 21.863234 21.863234 0 0 1 4.649787 13.21032v152.950262c0.307933-2.001564 0.831419-4.064714 1.539664-6.035485a130.255608 130.255608 0 0 1 6.004691-11.947795c3.972334-7.636735 7.421182-15.55061 10.315752-23.710832 3.479642-9.484333 6.959283-19.800084 10.438924-30.916461 3.079329-9.422746 5.542792-18.968665 7.421183-28.699345 0.954592-6.497384 2.832982-12.810008 5.542792-18.783905a17.367414 17.367414 0 0 1 16.905515-6.712937 18.198833 18.198833 0 0 1 15.92013 6.712937 22.57148 22.57148 0 0 1 4.280267 11.14717c0 4.31106-0.677452 8.622121-1.939977 12.717628-2.52505 8.129428-4.557407 14.873158-6.343418 20.32357-1.786011 5.481205-5.573585 16.166476-11.485896 32.271366-5.727552 16.043303-11.14717 30.177422-16.289649 42.463944a57.737415 57.737415 0 0 1-12.040176 21.370542 17.429001 17.429001 0 0 1-10.038612 3.017742 20.50833 20.50833 0 0 1-20.292777-11.886209v40.616347h71.933121a16.320443 16.320443 0 0 1 12.810008 4.988513 19.091839 19.091839 0 0 1 4.5882 12.717627 18.014073 18.014073 0 0 1-4.311061 12.686835 16.443616 16.443616 0 0 1-13.11794 4.988513h-246.992964l0.27714-0.061587a17.921694 17.921694 0 0 1-12.040176-30.546942 16.566789 16.566789 0 0 1 12.009383-4.772959h70.855356v-56.998376c-0.338726 1.478078-0.215553 3.140915-0.831419 4.526613a19.122632 19.122632 0 0 1-19.738498 11.978589 14.626812 14.626812 0 0 1-14.842365-8.314188 200.679858 200.679858 0 0 1-6.959283-21.062609 567.520298 567.520298 0 0 0-13.087147-39.015096 783.504421 783.504421 0 0 0-14.04174-36.459253 30.762495 30.762495 0 0 1-3.818367-15.981716 19.738498 19.738498 0 0 1 12.009382-15.73537 18.660733 18.660733 0 0 1 19.492151 0c2.586636 2.15553 4.618993 4.957719 5.789139 8.098634 1.632044 3.787574 3.849161 9.207193 6.312624 16.228063 2.43267 7.051663 4.618993 12.594455 6.28183 16.659169l8.468155 22.232754 9.884645 28.422205c2.52505 5.604378 3.941541 11.701449 5.111686 17.79852v-138.077103a18.599146 18.599146 0 0 1 5.881518-14.072533 21.370542 21.370542 0 0 1 14.411259-5.819931 14.903951 14.903951 0 0 1 13.333493 6.189451zM61.587808 213.05876a15.396644 15.396644 0 0 1 15.396644-15.396644h400.312744a15.396644 15.396644 0 0 1 0 30.793288h-400.312744a15.396644 15.396644 0 0 1-15.396644-15.396644z m25.466049 212.96638a20.169604 20.169604 0 0 1 12.810008-4.280267h52.317796v-6.682144a12.009382 12.009382 0 0 1 5.080893-10.377338 21.894028 21.894028 0 0 1 13.117941-3.818367 20.50833 20.50833 0 0 1 13.364287 3.818367 13.117941 13.117941 0 0 1 5.388825 10.870031v6.097071h58.260901v-7.298009a13.48746 13.48746 0 0 1 4.280267-9.1764 21.247369 21.247369 0 0 1 26.513021 0c2.771396 2.43267 4.49582 5.943105 4.5882 9.638299v6.74373h55.766644c4.21868 0 8.252601 1.508871 11.485897 4.249474a14.934745 14.934745 0 0 1 5.388825 11.732243 14.442052 14.442052 0 0 1-5.111686 11.978589 18.198833 18.198833 0 0 1-11.701449 4.434233h-55.735851v2.709809a11.917002 11.917002 0 0 1-4.926926 9.884646 21.247369 21.247369 0 0 1-12.963975 3.849161 19.153425 19.153425 0 0 1-12.748421-3.849161 12.163349 12.163349 0 0 1-4.834546-10.223372v-2.709809H189.287573v2.709809a11.60907 11.60907 0 0 1-5.542791 9.792266 24.111145 24.111145 0 0 1-13.85698 3.849161 20.23119 20.23119 0 0 1-12.317315-3.110122 11.793829 11.793829 0 0 1-5.265653-10.685271v-2.70981H99.987038l-0.09238 0.615866a19.276598 19.276598 0 0 1-12.625248-4.49582 14.411259 14.411259 0 0 1-5.542792-12.070969 13.85698 13.85698 0 0 1 5.327239-11.485896z m13.57984 112.888194a16.505202 16.505202 0 0 1-16.197269-16.843929v-14.349672a29.376797 29.376797 0 0 1 6.805316-22.171167c3.756781-3.695195 8.314188-6.405004 13.271907-8.067842 6.74373-1.508871 13.641427-2.124737 20.569917-1.847597h185.283214c10.254165-1.231732 20.569916 0.646659 29.715523 5.327239l-0.246346-0.831419c3.756781 3.233295 6.897697 7.144043 9.299573 11.485896 2.309497 4.77296 3.356468 10.007819 3.202501 15.304264v15.92013a17.151861 17.151861 0 0 1-4.280267 11.485897 17.79852 17.79852 0 0 1-14.503638 4.526613 18.07566 18.07566 0 0 1-12.779215-4.1263 13.48746 13.48746 0 0 1-4.465027-10.254165v-6.497384a10.592891 10.592891 0 0 0-12.286521-11.51669H131.919678a9.576713 9.576713 0 0 0-8.468154 2.771396 11.670656 11.670656 0 0 0-1.724425 6.712937v6.712937a15.581404 15.581404 0 0 1-4.618993 10.469718 19.307392 19.307392 0 0 1-13.887773 5.635171 24.295904 24.295904 0 0 1-2.586636 0.153967z m198.216395 11.793829v10.346545a25.435256 25.435256 0 0 1-8.960847 22.57148 67.745234 67.745234 0 0 1-34.796415 6.097071H181.866391a70.301077 70.301077 0 0 1-30.362182-4.280267 24.788597 24.788597 0 0 1-9.853852-10.654478c-2.06315-4.77296-3.079329-9.853852-2.956156-14.996331v-9.145607a28.329825 28.329825 0 0 1 7.636736-23.556865c3.818368-3.202502 8.283394-5.450412 13.087147-6.55897 7.421182-0.646659 14.903951-0.893005 22.38672-0.739039h73.04168c12.040176-1.139352 24.172731 1.016179 35.073555 6.281831a28.329825 28.329825 0 0 1 8.930053 24.63463z m-169.70181 130.563541a19.245805 19.245805 0 0 1-15.73537-10.900824 47.914356 47.914356 0 0 1-3.818368-19.676911v-13.364287a36.951946 36.951946 0 0 1 7.174836-25.835568c3.972334-4.465027 9.114813-7.729115 14.811572-9.515126 6.92849-1.447285 14.041739-2.06315 21.093402-1.939978h134.566669c11.023997-1.200938 22.140374 0.985385 31.871053 6.251038l-0.153967 0.153966c4.40344 3.356468 7.790702 7.852288 9.884646 12.933181 1.632044 5.604378 2.463463 11.393517 2.278703 17.182655v13.425874a32.332952 32.332952 0 0 1-8.560534 25.342876 55.181572 55.181572 0 0 1-34.858002 7.698322h-135.182535a153.135021 153.135021 0 0 1-23.372105-1.755218z m1004.138329 215.645396h-862.212065a30.793288 30.793288 0 1 1 0-61.586576h862.212065a30.793288 30.793288 0 1 1 0 61.586576z m5.727552-352.182835c-0.18476 9.207193-1.231732 18.3528-3.233296 27.406027a28.945691 28.945691 0 0 1-33.99579 16.012509h-29.653936a29.192037 29.192037 0 0 1-34.734829-17.090275h-0.061586a159.355266 159.355266 0 0 1-3.079329-25.927948l-0.307933-94.781741a35.104348 35.104348 0 0 1 38.245264-41.570938h29.592349a35.042762 35.042762 0 0 1 37.198292 41.570938v94.381428z m7.821495 77.229567c2.771396 8.129428 4.834546 16.412823 6.189451 24.91177 1.046972 6.312624 1.570458 12.717628 1.354904 19.122631a16.505202 16.505202 0 0 1-9.08402 12.194142 14.472845 14.472845 0 0 1-17.552174-0.862212 15.519817 15.519817 0 0 1-6.158657-7.636735 99.523907 99.523907 0 0 1-4.618994-19.122632l-3.787574-16.505202a76.151801 76.151801 0 0 1-2.463463-14.318879 18.907079 18.907079 0 0 1 6.65135-12.409695l0.153967-0.061587a14.842365 14.842365 0 0 1 16.813135-1.662837c6.220244 3.387262 10.808444 9.330366 12.502075 16.351236z m-99.000421-5.450412a22.910206 22.910206 0 0 1 19.091838-17.613761 16.505202 16.505202 0 0 1 14.442052 6.65135 20.32357 20.32357 0 0 1 3.849161 14.534432 116.552595 116.552595 0 0 1-18.629939 36.921152c-5.573585 13.025561-17.121068 22.4791-30.947254 25.37367a15.489024 15.489024 0 0 1-11.51669-4.742167 14.965538 14.965538 0 0 1-4.618993-10.531304 25.466049 25.466049 0 0 1 3.818368-12.194142c2.771396-3.879954 5.696758-7.513562 8.80688-11.054791 6.528177-8.283394 11.855416-17.521381 15.704577-27.344439z m112.210741-44.249955a97.891863 97.891863 0 0 1-0.769832-13.425874l-0.307933-23.187346c0.369519-6.83611 1.939977-13.518253 4.77296-19.707704 7.821495-11.085584 21.616888-16.320443 34.858002-13.364287h38.58399a23.187346 23.187346 0 0 1-11.054791-15.858543 15.796957 15.796957 0 0 1 2.679017-12.532869 17.860107 17.860107 0 0 1 7.667528-4.280267l9.515126-2.463463a17.921694 17.921694 0 0 0 7.605942-3.510435 15.519817 15.519817 0 0 0 4.033921-8.560534 28.884104 28.884104 0 0 0 0.739039-9.607506 7.267216 7.267216 0 0 0-8.314188-4.557406h-28.94569c-0.985385 3.479642-2.309497 7.759909-3.818368 12.840801-2.771396 7.636735-6.497384 14.934745-11.054791 21.678475a87.576111 87.576111 0 0 1-24.942563 25.188909 22.201961 22.201961 0 0 1-25.620016 4.557407 17.244241 17.244241 0 0 1-9.207193-12.994768c0-3.972334 1.354905-7.821495 3.818368-10.931617l15.92013-11.978589c8.498947-7.544356 14.657605-17.429001 17.552174-28.391411h-23.402899a13.980153 13.980153 0 0 1-9.053226-3.849161 15.704577 15.704577 0 0 1-4.618994-12.440489 15.396644 15.396644 0 0 1 4.618994-12.656041 13.949359 13.949359 0 0 1 9.053226-4.095508h100.416913c7.759909-0.523486 15.519817 0.554279 22.940999 2.986949a19.830877 19.830877 0 0 1 9.576713 9.515126c2.371083 5.573585 3.387262 11.639863 3.171708 17.706141-0.246346 7.944668-0.769832 16.720755-1.755217 26.297468a41.170626 41.170626 0 0 1-8.745294 22.941c-8.930054 7.698322-19.892464 12.871594-31.532327 14.934744h6.92849a26.913334 26.913334 0 0 1 20.939436 6.620557c3.602815 3.849161 6.343417 8.406568 8.098635 13.395081 1.231732 3.171709 2.093944 6.528177 2.401876 9.884645l-0.307933 22.941a146.329705 146.329705 0 0 1-2.371083 19.091838 17.552174 17.552174 0 0 1-13.333494 14.288086 80.432068 80.432068 0 0 1-23.495278 3.356468h-60.262465a34.026583 34.026583 0 0 1-26.790161-7.174836 27.590786 27.590786 0 0 1-6.189451-12.656041z m62.202442 99.154387a12.933181 12.933181 0 0 1-14.164912 6.405004 20.23119 20.23119 0 0 1-14.195706-6.712937 27.929512 27.929512 0 0 1-3.356468-6.959283 149.224274 149.224274 0 0 1-5.296446-15.273471 147.561436 147.561436 0 0 0-5.973898-16.689962 36.551633 36.551633 0 0 1-3.572021-11.42431 16.628376 16.628376 0 0 1 2.401876-9.053226c6.158658-8.129428 17.552174-10.223372 26.205088-4.711373v-0.123174c7.02087 6.620557 11.947796 15.088711 14.380466 24.388285 3.202502 8.252601 5.573585 16.751549 7.113249 25.496842a24.357491 24.357491 0 0 1-3.541228 14.657605z m83.480604-2.24791a20.539123 20.539123 0 0 1-10.685271 12.255729 15.889337 15.889337 0 0 1-14.318879-0.554279 18.106453 18.106453 0 0 1-7.144043-6.558971 170.995128 170.995128 0 0 1-8.652914-14.657605 144.820834 144.820834 0 0 0-12.194142-19.122632 54.1346 54.1346 0 0 1-8.930053-15.92013 15.150298 15.150298 0 0 1 2.956155-13.918566 16.474409 16.474409 0 0 1 14.626812-6.74373c5.019306 0.492693 9.853852 2.494256 13.67222 5.789138v0.215553c5.819931 5.296446 10.900824 11.362723 14.965538 18.07566 5.358032 8.344981 9.669092 15.766163 13.48746 22.355927a21.370542 21.370542 0 0 1 2.217117 18.783906z m6.83611-440.713538h-400.312744a15.396644 15.396644 0 0 1 0-30.793288h400.312744a15.396644 15.396644 0 0 1 0 30.793288z" p-id="10443" data-spm-anchor-id="a313x.7781069.0.i34" class="" fill="#ced5f1"></path></svg>