<?xml version="1.0" standalone="no"?><!DOCTYPE svg PUBLIC "-//W3C//DTD SVG 1.1//EN" "http://www.w3.org/Graphics/SVG/1.1/DTD/svg11.dtd"><svg t="1514532505711" class="icon" style="" viewBox="0 0 1024 1024" version="1.1" xmlns="http://www.w3.org/2000/svg" p-id="11717" xmlns:xlink="http://www.w3.org/1999/xlink" width="150" height="150"><defs><style type="text/css"></style></defs><path d="M512.01536 421.40672c-75.02336-0.02048-135.82848 60.78464-135.82848 135.79264 0 74.98752 60.80512 135.79264 135.78752 135.808 75.02336 0 135.82848-60.82048 135.82848-135.79264v-0.01536c0.00512-74.90048-60.83072-135.79264-135.78752-135.79264z m362.14272-135.72608h-108.65664c-15.01696 0-31.0784-11.5968-35.82464-25.81504L701.62944 175.616c-4.67968-14.15168-20.79744-25.728-35.63008-25.728H358.10816c-14.96064 0-31.0272 11.5968-35.75296 25.728l-28.0576 84.2496c-4.7616 14.21824-20.80768 25.81504-35.77344 25.81504h-108.6464c-49.83296-0.01536-90.55744 40.704-90.55744 90.51648v407.37792c0 49.78688 40.71936 90.54208 90.55744 90.54208h724.28032c49.76128 0 90.51648-40.81152 90.51648-90.58816V376.19712c0-49.76128-40.81152-90.53184-90.51648-90.53184v0.01536z m-362.14272 497.8944c-125.00992 0-226.34496-101.31456-226.34496-226.30912 0-124.98432 101.33504-226.34496 226.34496-226.34496 124.98944 0 226.31424 101.36064 226.31424 226.34496 0 124.99456-101.3248 226.30912-226.31424 226.30912z" fill="#ced5f1" p-id="11718"></path></svg>