<?xml version="1.0" standalone="no"?><!DOCTYPE svg PUBLIC "-//W3C//DTD SVG 1.1//EN" "http://www.w3.org/Graphics/SVG/1.1/DTD/svg11.dtd"><svg t="1514445387292" class="icon" style="" viewBox="0 0 1024 1024" version="1.1" xmlns="http://www.w3.org/2000/svg" p-id="13775" xmlns:xlink="http://www.w3.org/1999/xlink" width="150" height="150"><defs><style type="text/css"></style></defs><path d="M745.152 98.433c-86.4 0-182.784 13.248-233.152 47.168-50.304-33.92-146.752-47.168-233.152-47.168-123.648 0-267.968 27.008-267.968 103.232v608.768c0 10.24 4.544 20.032 12.416 26.624s18.24 9.472 28.352 7.616c68.544-11.904 147.072-18.112 227.2-18.112s158.656 6.272 227.2 18.112c0.96 0.256 1.792 0.256 2.816 0.384 0.768 0 1.408 0 2.176 0.128 0.32 0 0.576 0 0.96 0 1.856 0 3.776-0.128 5.568-0.384 0.064-0.128 0.192 0 0.384-0.128 68.544-11.904 147.072-18.112 227.2-18.112s158.656 6.272 227.2 18.112c1.984 0.384 3.968 0.512 5.952 0.512 8.128 0 16.128-2.752 22.464-8.128 7.872-6.656 12.416-16.384 12.416-26.624v-608.832c-0.064-76.224-144.448-103.168-268.032-103.168zM477.184 769.729c-61.952-8.512-129.664-12.864-198.272-12.864s-136.32 4.352-198.272 12.864v-563.712c14.080-13.824 83.712-37.952 198.272-37.952s184.192 24.128 198.272 37.952v563.712zM943.36 769.729c-123.904-16.896-272.704-16.896-396.48 0v-563.712c14.144-13.824 83.648-37.952 198.272-37.952s184.192 24.128 198.272 37.952v563.712z" p-id="13776" fill="#ced5f1"></path><path d="M615.168 412.288c0 7.68 6.208 13.888 13.952 13.888l235.264 0c7.744 0 14.016-6.272 14.016-13.888 0-7.744-6.272-13.952-14.016-13.952L629.12 398.336C621.376 398.4 615.168 404.608 615.168 412.288z" p-id="13777" fill="#ced5f1"></path><path d="M864.448 513.024 629.12 513.024c-7.744 0-13.952 6.272-13.952 14.016S621.376 540.992 629.12 540.992l235.328 0c7.68 0 13.952-6.272 13.952-14.016S872.128 513.024 864.448 513.024z" p-id="13778" fill="#ced5f1"></path><path d="M864.448 627.776 629.12 627.776c-7.744 0-13.952 6.4-13.952 14.016s6.208 13.888 13.952 13.888l235.328 0c7.68 0 13.952-6.272 13.952-13.888S872.128 627.776 864.448 627.776z" p-id="13779" fill="#ced5f1"></path><path d="M943.36 833.728" p-id="13780" fill="#ced5f1"></path><path d="M248.832 456.448l0-128.64c0-2.944-2.368-5.312-5.312-5.312S238.144 324.864 238.144 327.808l0 128.64c0 2.944 2.368 5.376 5.312 5.376S248.832 459.392 248.832 456.448z" p-id="13781" fill="#ced5f1"></path><path d="M264.896 327.808l0 128.64c0 2.944 2.432 5.376 5.312 5.376 2.944 0 5.376-2.432 5.376-5.376l0-128.64c0-2.944-2.432-5.312-5.376-5.312C267.328 322.496 264.896 324.864 264.896 327.808z" p-id="13782" fill="#ced5f1"></path><path d="M414.912 327.808l0 128.64c0 2.944 2.432 5.376 5.376 5.376 2.944 0 5.312-2.432 5.312-5.376l0-128.64c0-2.944-2.432-5.312-5.312-5.312C417.344 322.496 414.912 324.864 414.912 327.808z" p-id="13783" fill="#ced5f1"></path><path d="M313.152 327.808l0 128.64c0 2.944 2.432 5.376 5.312 5.376 2.944 0 5.376-2.432 5.376-5.376l0-128.64c0-2.944-2.432-5.312-5.376-5.312C315.52 322.496 313.152 324.864 313.152 327.808z" p-id="13784" fill="#ced5f1"></path><path d="M339.904 327.808l0 128.64c0 2.944 2.432 5.376 5.376 5.376s5.376-2.432 5.376-5.376l0-128.64c0-2.944-2.432-5.312-5.376-5.312S339.904 324.864 339.904 327.808z" p-id="13785" fill="#ced5f1"></path><path d="M388.16 327.808l0 128.64c0 2.944 2.432 5.376 5.312 5.376 2.944 0 5.376-2.432 5.376-5.376l0-128.64c0-2.944-2.432-5.312-5.376-5.312C390.592 322.496 388.16 324.864 388.16 327.808z" p-id="13786" fill="#ced5f1"></path><path d="M414.912 327.808" p-id="13787" fill="#ced5f1"></path></svg>