<?xml version="1.0" standalone="no"?><!DOCTYPE svg PUBLIC "-//W3C//DTD SVG 1.1//EN" "http://www.w3.org/Graphics/SVG/1.1/DTD/svg11.dtd"><svg t="1514445445837" class="icon" style="" viewBox="0 0 1024 1024" version="1.1" xmlns="http://www.w3.org/2000/svg" p-id="14161" xmlns:xlink="http://www.w3.org/1999/xlink" width="150" height="150"><defs><style type="text/css"></style></defs><path d="M585.841664 433.872896l294.67648 0 0 50.985984-294.67648 0L585.841664 433.872896 585.841664 433.872896 585.841664 433.872896zM585.841664 433.872896" p-id="14162" fill="#ced5f1"></path><path d="M675.526656 808.643584l-2.571264-2.548736L93.887488 806.094848c-23.056384 0-40.998912-17.85344-40.998912-40.79104l0-535.38816c0-22.9376 17.932288-43.336704 40.998912-43.336704l825.05728 0c23.066624 0 41.001984 17.84832 41.001984 40.800256l0 321.220608 2.56 2.54976c12.811264 7.650304 25.617408 17.850368 35.877888 30.587904l10.24512 12.7488L1008.62976 217.166848c0-43.339776-35.876864-79.026176-79.424512-79.026176L81.07008 138.140672c-43.552768 0-79.428608 35.6864-79.428608 79.026176l0 560.87552c0 43.3408 35.876864 79.0272 79.428608 79.0272l627.762176 0-7.68512-10.19904C690.896896 834.130944 683.211776 821.383168 675.526656 808.643584L675.526656 808.643584 675.526656 808.643584zM675.526656 808.643584" p-id="14163" fill="#ced5f1"></path><path d="M585.841664 546.052096l87.113728 0 0 50.985984-87.113728 0L585.841664 546.052096 585.841664 546.052096 585.841664 546.052096zM585.841664 546.052096" p-id="14164" fill="#ced5f1"></path><path d="M585.841664 324.245504l294.67648 0 0 50.989056-294.67648 0L585.841664 324.245504 585.841664 324.245504 585.841664 324.245504zM585.841664 324.245504" p-id="14165" fill="#ced5f1"></path><path d="M854.8864 553.7024c-94.794752 0-169.109504 73.925632-169.109504 168.262656 0 91.779072 76.874752 168.265728 169.109504 168.265728 94.811136-0.01024 169.1136-73.94816 169.1136-168.278016C1024 627.628032 947.125248 553.7024 854.8864 553.7024L854.8864 553.7024 854.8864 553.7024zM852.3264 823.932928c-7.68512 7.648256-23.056384 7.648256-33.301504 0l-71.743488-71.37792c-7.68512-7.650304-7.68512-22.951936 0-30.589952 7.68512-7.650304 23.056384-7.650304 33.3056 0l56.368128 56.088576 110.181376-107.075584c7.68512-7.653376 23.056384-7.653376 33.301504 0 7.686144 7.650304 7.686144 22.948864 0 30.598144L852.3264 823.932928 852.3264 823.932928 852.3264 823.932928zM852.3264 823.932928" p-id="14166" fill="#ced5f1"></path><path d="M245.146624 362.082304l0 42.238976 22.744064 0c11.905024 1.091584 17.869824 8.681472 17.869824 22.744064-1.09056 14.087168-7.589888 21.12-19.494912 21.12l-21.118976 0 0 11.37152c4.315136 7.589888 8.655872 14.088192 12.996608 19.495936 27.0592 31.424512 39.522304 49.82784 37.364736 55.23456-1.091584 15.178752-8.123392 22.744064-21.118976 22.744064-7.589888 1.09056-15.179776-3.782656-22.744064-14.620672-3.249152-4.315136-5.43232-7.565312-6.498304-9.74848l0 142.961664c-1.091584 11.905024-8.681472 18.402304-22.74304 19.494912-14.088192-1.092608-21.12-7.589888-21.12-19.494912L201.283584 540.783616c-14.088192 34.673664-28.176384 50.361344-42.238976 47.112192-22.74304-4.31616-25.993216-19.493888-9.747456-45.487104l1.624064-1.625088c17.311744-23.810048 32.490496-54.677504 45.487104-92.60032L162.29376 448.183296c-10.83904 0-16.80384-7.031808-17.869824-21.12 1.065984-14.062592 7.564288-21.65248 19.493888-22.744064l37.36576 0 0-37.36576c-8.681472 1.091584-17.337344 1.625088-25.993216 1.625088-15.179776 1.091584-23.835648-5.940224-25.993216-21.118976 1.065984-14.062592 9.189376-21.65248 24.368128-22.744064 19.494912 0 36.806656-1.065984 51.986432-3.249152 15.154176-1.065984 28.150784-3.249152 38.989824-6.498304 14.062592-2.157568 23.277568 3.249152 27.61728 16.24576 1.067008 14.088192-4.873216 22.744064-17.869824 25.993216C264.640512 360.457216 254.89408 362.082304 245.146624 362.082304zM332.872704 389.699584l14.621696 0c-4.34176 0-9.74848-7.031808-16.24576-21.12 0-1.065984 0-2.157568 0-3.249152-5.43232-9.747456-9.747456-17.311744-12.996608-22.74304-5.43232-7.564288-7.589888-13.530112-6.498304-17.870848 2.157568-14.062592 12.996608-19.494912 32.49152-16.24576 8.655872 4.340736 17.869824 15.179776 27.61728 32.49152 12.996608 27.083776 14.062592 43.329536 3.249152 48.736256l53.610496 0c-6.498304-2.157568-7.589888-8.122368-3.249152-17.870848 1.065984-1.065984 2.157568-2.690048 3.249152-4.87424 7.564288-9.747456 17.870848-25.992192 30.867456-48.736256 6.498304-9.747456 15.686656-11.905024 27.61728-6.498304 10.814464 5.43232 14.063616 14.088192 9.747456 25.993216-10.838016 23.834624-21.677056 41.172992-32.490496 51.986432l9.747456 0c18.403328 1.091584 28.150784 10.83904 29.241344 29.242368l0 84.476928c1.067008 23.835648-8.680448 34.675712-29.241344 32.49152l-24.368128 0 0 94.224384c0 7.590912 2.690048 11.372544 8.122368 11.372544l9.74848 0c8.655872 3.249152 13.529088-13.529088 14.620672-50.362368 1.065984-10.814464 8.122368-16.244736 21.118976-16.244736 12.996608 2.182144 19.494912 8.680448 19.494912 19.493888 0 66.049024-17.869824 96.91648-53.610496 92.601344l-22.74304 0c-27.0848-1.091584-40.613888-13.554688-40.613888-37.364736L405.981184 535.9104l-19.494912 0c0 75.82208-27.618304 126.715904-82.852864 152.710144-17.33632 7.564288-30.333952 5.404672-38.989824-6.499328-7.589888-12.996608-3.248128-23.835648 12.996608-32.490496 44.39552-17.311744 66.048-55.235584 64.982016-113.72032l-12.996608 0c-20.586496 1.09056-30.333952-8.655872-29.242368-29.242368l0-87.72608C300.381184 399.44704 311.194624 389.699584 332.872704 389.699584zM457.96352 487.17312l0-47.112192c-1.09056-4.315136-3.807232-7.031808-8.122368-8.123392l-95.849472 0c-5.43232 1.091584-8.123392 3.807232-8.123392 8.123392l0 45.487104c0 5.43232 2.691072 8.123392 8.123392 8.123392l95.849472 0C455.247872 494.763008 457.96352 492.60544 457.96352 487.17312z" p-id="14167" fill="#ced5f1"></path></svg>